<?xml version="1.0" encoding="UTF-8"?>
<!DOCTYPE svg PUBLIC "-//W3C//DTD SVG 1.1//EN" "http://www.w3.org/Graphics/SVG/1.1/DTD/svg11.dtd">
<!-- Creator: CorelDRAW X6 -->
<svg xmlns="http://www.w3.org/2000/svg" xml:space="preserve" width="2.40277in" height="2.40277in" version="1.1" style="shape-rendering:geometricPrecision; text-rendering:geometricPrecision; image-rendering:optimizeQuality; fill-rule:evenodd; clip-rule:evenodd"
viewBox="0 0 2403 2403"
 xmlns:xlink="http://www.w3.org/1999/xlink">
 <defs>
  <style type="text/css">
   <![CDATA[
    .fil0 {fill:#009bde}
   ]]>
  </style>
 </defs>
 <g id="Layer_x0020_1">
  <metadata id="CorelCorpID_0Corel-Layer"/>
  <g id="_163463400">
   <path class="fil0" d="M0 0c228,0 586,-4 577,0 -125,173 -500,1329 -577,2002 -5,0 5,-16 0,-16 0,-662 0,-1324 0,-1986z"/>
  </g>
  <g id="_163464456">
   <path class="fil0" d="M2403 0c-5,149 5,299 0,449 -74,-263 -270,-393 -497,-449 166,0 331,0 497,0z"/>
  </g>
  <g id="_163464048">
   <path class="fil0" d="M1297 368c341,-2 574,227 368,529 -179,262 -1297,548 -849,929 333,34 496,-156 737,-240 21,812 -428,837 -1233,817 0,-5 0,-11 0,-16 228,-836 422,-1759 977,-2018z"/>
  </g>
  <g id="_163464216">
   <path class="fil0" d="M2403 2403c-246,0 -491,0 -737,0 43,-43 85,-85 128,-128 273,-379 212,-630 16,-849 198,-88 521,-379 593,-593 17,-15 -5,16 0,16 0,518 0,1036 0,1554z"/>
  </g>
 </g>
</svg>
